<svg width="37" height="46" viewBox="0 0 37 46" fill="none" xmlns="http://www.w3.org/2000/svg">
<path fill-rule="evenodd" clip-rule="evenodd" d="M13.7126 12.0295H9.35144H4.71774V14.2918H6.8983V14.2918H27.3411H29.5217V14.2918H31.9748V12.0295H27.3411H22.7074H13.7126ZM22.7069 7.50485C22.7069 6.25648 21.8892 5.24252 20.5263 5.24252H16.1652C14.8023 5.24252 13.712 6.25648 13.712 7.50485H20.5263H22.7069ZM9.35139 7.50479C9.35139 3.75694 12.3497 0.717773 16.1657 0.717773H20.5268C24.3428 0.717773 27.3411 3.75694 27.3411 7.50479H31.9748C33.0651 7.50479 34.1553 7.98179 34.9731 8.82948C35.7908 9.6799 36.3359 10.8302 36.3359 12.0295V14.2918C36.3359 15.9817 35.5182 17.4563 34.1553 18.2332C34.1553 18.4267 34.1553 18.6202 34.1553 18.8165V39.1802C34.1553 42.9281 31.1571 45.9673 27.3411 45.9673H9.35139C5.5354 45.9673 2.53712 42.9281 2.53712 39.1802V18.8165C2.53712 18.6202 2.53712 18.424 2.53712 18.2332C1.17427 17.4563 0.0839844 15.9817 0.0839844 14.2918V12.0295C0.0839844 9.52999 2.26455 7.50479 4.71769 7.50479H9.35139ZM6.89777 23.3412V18.8166H11.5315V32.3933C11.5315 33.6417 12.6218 34.6556 13.712 34.6556C15.0749 34.6556 16.1652 33.6417 16.1652 32.3933V18.8166H20.5263V32.3933C20.5263 33.6417 21.6166 34.6556 22.7069 34.6556C24.0697 34.6556 25.16 33.6417 25.16 32.3933V18.8166H29.5212V23.3412V39.1803C29.5212 40.4287 28.7034 41.4427 27.3406 41.4427H9.35091C7.98806 41.4427 6.89777 40.4287 6.89777 39.1803V23.3412Z" fill="#E0BEA2"/>
</svg>
