<svg width="26" height="26" viewBox="0 0 26 26" fill="none" xmlns="http://www.w3.org/2000/svg">
<path d="M12.8012 0C9.3249 0 8.88863 0.0152002 7.52328 0.0773342C6.1606 0.139735 5.23045 0.35547 4.41658 0.672007C3.5747 0.998944 2.86056 1.43628 2.14909 2.14802C1.43708 2.8595 0.999744 3.57364 0.67174 4.41525C0.354404 5.22939 0.138401 6.1598 0.0770674 7.52194C0.0160002 8.88729 0 9.32383 0 12.8001C0 16.2764 0.0154668 16.7114 0.0773342 18.0767C0.140001 19.4394 0.355737 20.3695 0.672007 21.1834C0.99921 22.0253 1.43655 22.7394 2.14829 23.4509C2.8595 24.1629 3.57364 24.6013 4.41498 24.9283C5.22939 25.2448 6.1598 25.4605 7.52221 25.5229C8.88756 25.5851 9.32356 25.6003 12.7996 25.6003C16.2762 25.6003 16.7111 25.5851 18.0765 25.5229C19.4391 25.4605 20.3703 25.2448 21.1848 24.9283C22.0264 24.6013 22.7394 24.1629 23.4506 23.4509C24.1627 22.7394 24.6 22.0253 24.928 21.1837C25.2427 20.3695 25.4587 19.4391 25.5227 18.077C25.584 16.7116 25.6 16.2764 25.6 12.8001C25.6 9.32383 25.584 8.88756 25.5227 7.52221C25.4587 6.15953 25.2427 5.22939 24.928 4.41551C24.6 3.57364 24.1627 2.8595 23.4506 2.14802C22.7386 1.43601 22.0266 0.998677 21.184 0.672007C20.3679 0.35547 19.4373 0.139735 18.0746 0.0773342C16.7092 0.0152002 16.2746 0 12.7972 0H12.8012Z" fill="#E0BEA2"/>
<path d="M13.0011 8.7334C15.3574 8.7334 17.2678 10.6436 17.2678 13.0001C17.2678 15.3564 15.3574 17.2668 13.0011 17.2668C10.6445 17.2668 8.73438 15.3564 8.73438 13.0001C8.73438 10.6436 10.6445 8.7334 13.0011 8.7334V8.7334Z" fill="white"/>
<path fill-rule="evenodd" clip-rule="evenodd" d="M11.853 2.50711C12.0759 2.50676 12.3158 2.50687 12.5746 2.50698L13.0013 2.50711C16.4189 2.50711 16.824 2.51937 18.1736 2.58071C19.4216 2.63777 20.0989 2.84631 20.5501 3.02151C21.1475 3.25351 21.5733 3.53085 22.0211 3.97886C22.4691 4.42686 22.7464 4.85353 22.979 5.45087C23.1542 5.90154 23.363 6.57888 23.4198 7.8269C23.4811 9.17624 23.4944 9.58158 23.4944 12.9976C23.4944 16.4137 23.4811 16.819 23.4198 18.1683C23.3627 19.4163 23.1542 20.0937 22.979 20.5444C22.747 21.1417 22.4691 21.567 22.0211 22.0148C21.5731 22.4628 21.1477 22.7401 20.5501 22.9721C20.0995 23.1481 19.4216 23.3561 18.1736 23.4132C16.8242 23.4745 16.4189 23.4879 13.0013 23.4879C9.58335 23.4879 9.17828 23.4745 7.82893 23.4132C6.58092 23.3556 5.90358 23.1471 5.45211 22.9719C4.85477 22.7399 4.4281 22.4625 3.98009 22.0145C3.53209 21.5665 3.25475 21.1409 3.02222 20.5433C2.84702 20.0926 2.63821 19.4153 2.58141 18.1673C2.52008 16.8179 2.50781 16.4126 2.50781 12.9944C2.50781 9.57625 2.52008 9.17304 2.58141 7.8237C2.63848 6.57568 2.84702 5.89834 3.02222 5.44714C3.25422 4.8498 3.53209 4.42313 3.98009 3.97512C4.4281 3.52712 4.85477 3.24978 5.45211 3.01724C5.90331 2.84124 6.58092 2.63324 7.82893 2.57591C9.00975 2.52257 9.46735 2.50657 11.853 2.50391V2.50711ZM19.8339 4.63246C18.9859 4.63246 18.2978 5.31967 18.2978 6.16794C18.2978 7.01595 18.9859 7.70396 19.8339 7.70396C20.6819 7.70396 21.3699 7.01595 21.3699 6.16794C21.3699 5.31994 20.6819 4.63193 19.8339 4.63193V4.63246ZM6.42785 13.0005C6.42785 9.37046 9.37094 6.42729 13.001 6.42715C16.6312 6.42715 19.5736 9.37038 19.5736 13.0005C19.5736 16.6307 16.6314 19.5726 13.0013 19.5726C9.37108 19.5726 6.42785 16.6307 6.42785 13.0005Z" fill="white"/>
</svg>
