<svg width="43" height="43" viewBox="0 0 43 43" fill="none" xmlns="http://www.w3.org/2000/svg">
<path d="M21.499 27.2333C24.6654 27.2333 27.2323 24.6664 27.2323 21.4999C27.2323 18.3335 24.6654 15.7666 21.499 15.7666C18.3325 15.7666 15.7656 18.3335 15.7656 21.4999C15.7656 24.6664 18.3325 27.2333 21.499 27.2333Z" fill="white" fill-opacity="0.87"/>
<path d="M16.1257 3.58301L12.8469 7.16634H7.16732C5.19648 7.16634 3.58398 8.77884 3.58398 10.7497V32.2497C3.58398 34.2205 5.19648 35.833 7.16732 35.833H35.834C37.8048 35.833 39.4173 34.2205 39.4173 32.2497V10.7497C39.4173 8.77884 37.8048 7.16634 35.834 7.16634H30.1544L26.8757 3.58301H16.1257ZM21.5007 30.458C16.5557 30.458 12.5423 26.4447 12.5423 21.4997C12.5423 16.5547 16.5557 12.5413 21.5007 12.5413C26.4457 12.5413 30.459 16.5547 30.459 21.4997C30.459 26.4447 26.4457 30.458 21.5007 30.458Z" fill="white"/>
</svg>
