<svg width="332" height="26" viewBox="0 0 332 26" fill="none" xmlns="http://www.w3.org/2000/svg">
<path d="M0.57 25V1.2H3.97V22.042H16.856V25H0.57ZM31.0699 25.272C29.2565 25.272 27.5679 24.966 26.0039 24.354C24.4625 23.742 23.1252 22.892 21.9919 21.804C20.8585 20.6933 19.9745 19.4013 19.3399 17.928C18.7052 16.4547 18.3879 14.8453 18.3879 13.1C18.3879 11.3547 18.7052 9.74533 19.3399 8.272C19.9745 6.79867 20.8585 5.518 21.9919 4.43C23.1252 3.31933 24.4625 2.458 26.0039 1.846C27.5452 1.234 29.2339 0.928 31.0699 0.928C32.8832 0.928 34.5492 1.234 36.0679 1.846C37.6092 2.43533 38.9465 3.28533 40.0799 4.396C41.2359 5.484 42.1199 6.76467 42.7319 8.238C43.3665 9.71133 43.6839 11.332 43.6839 13.1C43.6839 14.868 43.3665 16.4887 42.7319 17.962C42.1199 19.4353 41.2359 20.7273 40.0799 21.838C38.9465 22.926 37.6092 23.776 36.0679 24.388C34.5492 24.9773 32.8832 25.272 31.0699 25.272ZM31.0699 22.246C32.3845 22.246 33.5972 22.0193 34.7079 21.566C35.8412 21.1127 36.8159 20.478 37.6319 19.662C38.4705 18.8233 39.1165 17.8487 39.5699 16.738C40.0459 15.6273 40.2839 14.4147 40.2839 13.1C40.2839 11.7853 40.0459 10.5727 39.5699 9.462C39.1165 8.35133 38.4705 7.388 37.6319 6.572C36.8159 5.73333 35.8412 5.08733 34.7079 4.634C33.5972 4.18067 32.3845 3.954 31.0699 3.954C29.7325 3.954 28.4972 4.18067 27.3639 4.634C26.2532 5.08733 25.2785 5.73333 24.4399 6.572C23.6012 7.388 22.9439 8.35133 22.4679 9.462C22.0145 10.5727 21.7879 11.7853 21.7879 13.1C21.7879 14.4147 22.0145 15.6273 22.4679 16.738C22.9439 17.8487 23.6012 18.8233 24.4399 19.662C25.2785 20.478 26.2532 21.1127 27.3639 21.566C28.4972 22.0193 29.7325 22.246 31.0699 22.246ZM51.9405 12.454H64.2145V15.378H51.9405V12.454ZM52.2805 25H48.8805V1.2H65.6765V4.158H52.2805V25ZM75.3546 25V4.158H67.1946V1.2H86.8806V4.158H78.7206V25H75.3546ZM89.794 25.204C89.1593 25.204 88.6153 24.9887 88.162 24.558C87.7086 24.1047 87.482 23.538 87.482 22.858C87.482 22.178 87.7086 21.6227 88.162 21.192C88.6153 20.7613 89.1593 20.546 89.794 20.546C90.406 20.546 90.9273 20.7613 91.358 21.192C91.8113 21.6227 92.038 22.178 92.038 22.858C92.038 23.538 91.8113 24.1047 91.358 24.558C90.9273 24.9887 90.406 25.204 89.794 25.204ZM104.459 25.272C102.646 25.272 100.912 25 99.2571 24.456C97.6025 23.8893 96.2991 23.164 95.3471 22.28L96.6051 19.628C97.5118 20.4213 98.6678 21.0787 100.073 21.6C101.478 22.1213 102.94 22.382 104.459 22.382C105.842 22.382 106.964 22.2233 107.825 21.906C108.686 21.5887 109.321 21.158 109.729 20.614C110.137 20.0473 110.341 19.4127 110.341 18.71C110.341 17.894 110.069 17.2367 109.525 16.738C109.004 16.2393 108.312 15.8427 107.451 15.548C106.612 15.2307 105.683 14.9587 104.663 14.732C103.643 14.5053 102.612 14.2447 101.569 13.95C100.549 13.6327 99.6085 13.236 98.7471 12.76C97.9085 12.284 97.2285 11.6493 96.7071 10.856C96.1858 10.04 95.9251 8.99733 95.9251 7.728C95.9251 6.504 96.2425 5.382 96.8771 4.362C97.5345 3.31933 98.5318 2.492 99.8691 1.88C101.229 1.24533 102.952 0.928 105.037 0.928C106.42 0.928 107.791 1.10933 109.151 1.472C110.511 1.83466 111.69 2.356 112.687 3.036L111.565 5.756C110.545 5.076 109.468 4.58867 108.335 4.294C107.202 3.97667 106.102 3.818 105.037 3.818C103.7 3.818 102.6 3.988 101.739 4.328C100.878 4.668 100.243 5.12133 99.8351 5.688C99.4498 6.25467 99.2571 6.88933 99.2571 7.592C99.2571 8.43067 99.5178 9.09933 100.039 9.598C100.583 10.0967 101.274 10.4933 102.113 10.788C102.974 11.0827 103.915 11.3547 104.935 11.604C105.955 11.8307 106.975 12.0913 107.995 12.386C109.038 12.6807 109.978 13.066 110.817 13.542C111.678 14.018 112.37 14.6527 112.891 15.446C113.412 16.2393 113.673 17.2593 113.673 18.506C113.673 19.7073 113.344 20.8293 112.687 21.872C112.03 22.892 111.01 23.7193 109.627 24.354C108.267 24.966 106.544 25.272 104.459 25.272ZM135.708 1.2H139.108V25H135.708V1.2ZM122.04 25H118.64V1.2H122.04V25ZM136.014 14.392H121.7V11.434H136.014V14.392ZM156.976 25.272C155.163 25.272 153.474 24.966 151.91 24.354C150.369 23.742 149.031 22.892 147.898 21.804C146.765 20.6933 145.881 19.4013 145.246 17.928C144.611 16.4547 144.294 14.8453 144.294 13.1C144.294 11.3547 144.611 9.74533 145.246 8.272C145.881 6.79867 146.765 5.518 147.898 4.43C149.031 3.31933 150.369 2.458 151.91 1.846C153.451 1.234 155.14 0.928 156.976 0.928C158.789 0.928 160.455 1.234 161.974 1.846C163.515 2.43533 164.853 3.28533 165.986 4.396C167.142 5.484 168.026 6.76467 168.638 8.238C169.273 9.71133 169.59 11.332 169.59 13.1C169.59 14.868 169.273 16.4887 168.638 17.962C168.026 19.4353 167.142 20.7273 165.986 21.838C164.853 22.926 163.515 23.776 161.974 24.388C160.455 24.9773 158.789 25.272 156.976 25.272ZM156.976 22.246C158.291 22.246 159.503 22.0193 160.614 21.566C161.747 21.1127 162.722 20.478 163.538 19.662C164.377 18.8233 165.023 17.8487 165.476 16.738C165.952 15.6273 166.19 14.4147 166.19 13.1C166.19 11.7853 165.952 10.5727 165.476 9.462C165.023 8.35133 164.377 7.388 163.538 6.572C162.722 5.73333 161.747 5.08733 160.614 4.634C159.503 4.18067 158.291 3.954 156.976 3.954C155.639 3.954 154.403 4.18067 153.27 4.634C152.159 5.08733 151.185 5.73333 150.346 6.572C149.507 7.388 148.85 8.35133 148.374 9.462C147.921 10.5727 147.694 11.7853 147.694 13.1C147.694 14.4147 147.921 15.6273 148.374 16.738C148.85 17.8487 149.507 18.8233 150.346 19.662C151.185 20.478 152.159 21.1127 153.27 21.566C154.403 22.0193 155.639 22.246 156.976 22.246ZM174.787 25V1.2H184.069C186.154 1.2 187.933 1.52867 189.407 2.186C190.88 2.84333 192.013 3.79533 192.807 5.042C193.6 6.28867 193.997 7.77333 193.997 9.496C193.997 11.2187 193.6 12.7033 192.807 13.95C192.013 15.174 190.88 16.126 189.407 16.806C187.933 17.4633 186.154 17.792 184.069 17.792H176.657L178.187 16.194V25H174.787ZM178.187 16.534L176.657 14.834H183.967C186.143 14.834 187.786 14.3693 188.897 13.44C190.03 12.5107 190.597 11.196 190.597 9.496C190.597 7.796 190.03 6.48133 188.897 5.552C187.786 4.62267 186.143 4.158 183.967 4.158H176.657L178.187 2.458V16.534ZM210.068 25.272C208.255 25.272 206.566 24.966 205.002 24.354C203.461 23.742 202.123 22.892 200.99 21.804C199.857 20.6933 198.973 19.4013 198.338 17.928C197.703 16.4547 197.386 14.8453 197.386 13.1C197.386 11.3547 197.703 9.74533 198.338 8.272C198.973 6.79867 199.857 5.518 200.99 4.43C202.123 3.31933 203.461 2.458 205.002 1.846C206.543 1.234 208.232 0.928 210.068 0.928C211.881 0.928 213.547 1.234 215.066 1.846C216.607 2.43533 217.945 3.28533 219.078 4.396C220.234 5.484 221.118 6.76467 221.73 8.238C222.365 9.71133 222.682 11.332 222.682 13.1C222.682 14.868 222.365 16.4887 221.73 17.962C221.118 19.4353 220.234 20.7273 219.078 21.838C217.945 22.926 216.607 23.776 215.066 24.388C213.547 24.9773 211.881 25.272 210.068 25.272ZM210.068 22.246C211.383 22.246 212.595 22.0193 213.706 21.566C214.839 21.1127 215.814 20.478 216.63 19.662C217.469 18.8233 218.115 17.8487 218.568 16.738C219.044 15.6273 219.282 14.4147 219.282 13.1C219.282 11.7853 219.044 10.5727 218.568 9.462C218.115 8.35133 217.469 7.388 216.63 6.572C215.814 5.73333 214.839 5.08733 213.706 4.634C212.595 4.18067 211.383 3.954 210.068 3.954C208.731 3.954 207.495 4.18067 206.362 4.634C205.251 5.08733 204.277 5.73333 203.438 6.572C202.599 7.388 201.942 8.35133 201.466 9.462C201.013 10.5727 200.786 11.7853 200.786 13.1C200.786 14.4147 201.013 15.6273 201.466 16.738C201.942 17.8487 202.599 18.8233 203.438 19.662C204.277 20.478 205.251 21.1127 206.362 21.566C207.495 22.0193 208.731 22.246 210.068 22.246ZM227.879 25V1.2H230.667L246.409 20.75H244.947V1.2H248.347V25H245.559L229.817 5.45H231.279V25H227.879ZM255.47 25V1.2H258.87V22.042H271.756V25H255.47ZM275.658 25V1.2H279.058V25H275.658ZM286.183 25V1.2H288.971L304.713 20.75H303.251V1.2H306.651V25H303.863L288.121 5.45H289.583V25H286.183ZM316.869 11.468H329.109V14.358H316.869V11.468ZM317.175 22.042H331.047V25H313.775V1.2H330.571V4.158H317.175V22.042Z" fill="white"/>
</svg>
