<svg width="191" height="26" viewBox="0 0 191 26" fill="none" xmlns="http://www.w3.org/2000/svg">
<path d="M0.574 20V0.707999H2.42V20H0.574ZM13.1204 20.13C11.8031 20.13 10.6158 19.8353 9.55842 19.246C8.51842 18.6393 7.69509 17.816 7.08842 16.776C6.48176 15.7187 6.17842 14.514 6.17842 13.162C6.17842 11.7927 6.48176 10.588 7.08842 9.548C7.69509 8.508 8.51842 7.69333 9.55842 7.104C10.5984 6.51467 11.7858 6.22 13.1204 6.22C14.4724 6.22 15.6684 6.51467 16.7084 7.104C17.7658 7.69333 18.5891 8.508 19.1784 9.548C19.7851 10.588 20.0884 11.7927 20.0884 13.162C20.0884 14.514 19.7851 15.7187 19.1784 16.776C18.5891 17.816 17.7658 18.6393 16.7084 19.246C15.6511 19.8353 14.4551 20.13 13.1204 20.13ZM13.1204 18.492C14.1084 18.492 14.9838 18.2753 15.7464 17.842C16.5091 17.3913 17.1071 16.7673 17.5404 15.97C17.9911 15.1553 18.2164 14.2193 18.2164 13.162C18.2164 12.0873 17.9911 11.1513 17.5404 10.354C17.1071 9.55667 16.5091 8.94133 15.7464 8.508C14.9838 8.05733 14.1171 7.832 13.1464 7.832C12.1758 7.832 11.3091 8.05733 10.5464 8.508C9.78376 8.94133 9.17709 9.55667 8.72642 10.354C8.27576 11.1513 8.05042 12.0873 8.05042 13.162C8.05042 14.2193 8.27576 15.1553 8.72642 15.97C9.17709 16.7673 9.78376 17.3913 10.5464 17.842C11.3091 18.2753 12.1671 18.492 13.1204 18.492ZM24.1692 20V4.634C24.1692 3.42067 24.5245 2.44133 25.2352 1.696C25.9459 0.950666 26.9685 0.577999 28.3032 0.577999C28.8232 0.577999 29.3259 0.647332 29.8112 0.785999C30.2965 0.924666 30.7039 1.14133 31.0332 1.436L30.4092 2.814C30.1492 2.58867 29.8459 2.424 29.4992 2.32C29.1525 2.19867 28.7799 2.138 28.3812 2.138C27.6012 2.138 27.0032 2.35467 26.5872 2.788C26.1712 3.22133 25.9632 3.86267 25.9632 4.712V6.792L26.0152 7.65V20H24.1692ZM21.7252 7.884V6.35H30.1752V7.884H21.7252ZM36.9838 20.13C35.7011 20.13 34.7131 19.7833 34.0198 19.09C33.3264 18.3967 32.9798 17.4173 32.9798 16.152V3.334H34.8258V16.048C34.8258 16.8453 35.0251 17.4607 35.4238 17.894C35.8398 18.3273 36.4291 18.544 37.1918 18.544C38.0064 18.544 38.6824 18.31 39.2198 17.842L39.8698 19.168C39.5058 19.4973 39.0638 19.74 38.5438 19.896C38.0411 20.052 37.5211 20.13 36.9838 20.13ZM30.5358 7.884V6.35H38.9858V7.884H30.5358ZM43.6662 20.13C43.2848 20.13 42.9555 19.9913 42.6782 19.714C42.4182 19.4367 42.2882 19.0987 42.2882 18.7C42.2882 18.284 42.4182 17.946 42.6782 17.686C42.9555 17.426 43.2848 17.296 43.6662 17.296C44.0475 17.296 44.3682 17.426 44.6282 17.686C44.9055 17.946 45.0442 18.284 45.0442 18.7C45.0442 19.0987 44.9055 19.4367 44.6282 19.714C44.3682 19.9913 44.0475 20.13 43.6662 20.13ZM52.6599 20.13C51.5333 20.13 50.4673 19.974 49.4619 19.662C48.4566 19.3327 47.6679 18.9253 47.0959 18.44L47.9279 16.984C48.4826 17.4 49.1933 17.764 50.0599 18.076C50.9266 18.3707 51.8366 18.518 52.7899 18.518C54.0899 18.518 55.0259 18.3187 55.5979 17.92C56.1699 17.504 56.4559 16.958 56.4559 16.282C56.4559 15.7793 56.2913 15.3893 55.9619 15.112C55.6499 14.8173 55.2339 14.6007 54.7139 14.462C54.1939 14.306 53.6133 14.176 52.9719 14.072C52.3306 13.968 51.6893 13.8467 51.0479 13.708C50.4239 13.5693 49.8519 13.37 49.3319 13.11C48.8119 12.8327 48.3873 12.46 48.0579 11.992C47.7459 11.524 47.5899 10.9 47.5899 10.12C47.5899 9.37467 47.7979 8.70733 48.2139 8.118C48.6299 7.52867 49.2366 7.06933 50.0339 6.74C50.8486 6.39333 51.8366 6.22 52.9979 6.22C53.8819 6.22 54.7659 6.34133 55.6499 6.584C56.5339 6.80933 57.2619 7.11267 57.8339 7.494L57.0279 8.976C56.4213 8.56 55.7713 8.26533 55.0779 8.092C54.3846 7.90133 53.6913 7.806 52.9979 7.806C51.7673 7.806 50.8573 8.02267 50.2679 8.456C49.6959 8.872 49.4099 9.40933 49.4099 10.068C49.4099 10.588 49.5659 10.9953 49.8779 11.29C50.2073 11.5847 50.6319 11.8187 51.1519 11.992C51.6893 12.148 52.2699 12.278 52.8939 12.382C53.5353 12.486 54.1679 12.616 54.7919 12.772C55.4333 12.9107 56.0139 13.11 56.5339 13.37C57.0713 13.6127 57.4959 13.968 57.8079 14.436C58.1373 14.8867 58.3019 15.4847 58.3019 16.23C58.3019 17.0273 58.0766 17.7207 57.6259 18.31C57.1926 18.882 56.5513 19.3327 55.7019 19.662C54.8699 19.974 53.8559 20.13 52.6599 20.13ZM68.6572 6.22C69.7666 6.22 70.7372 6.43667 71.5692 6.87C72.4186 7.286 73.0772 7.92733 73.5452 8.794C74.0306 9.66067 74.2732 10.7527 74.2732 12.07V20H72.4272V12.252C72.4272 10.8133 72.0632 9.73 71.3352 9.002C70.6246 8.25667 69.6192 7.884 68.3192 7.884C67.3486 7.884 66.4992 8.08333 65.7712 8.482C65.0606 8.86333 64.5059 9.42667 64.1072 10.172C63.7259 10.9 63.5352 11.784 63.5352 12.824V20H61.6892V0.707999H63.5352V10.094L63.1712 9.392C63.6046 8.404 64.2979 7.63267 65.2512 7.078C66.2046 6.506 67.3399 6.22 68.6572 6.22ZM84.8235 20.13C83.5062 20.13 82.3189 19.8353 81.2615 19.246C80.2215 18.6393 79.3982 17.816 78.7915 16.776C78.1849 15.7187 77.8815 14.514 77.8815 13.162C77.8815 11.7927 78.1849 10.588 78.7915 9.548C79.3982 8.508 80.2215 7.69333 81.2615 7.104C82.3015 6.51467 83.4889 6.22 84.8235 6.22C86.1755 6.22 87.3715 6.51467 88.4115 7.104C89.4689 7.69333 90.2922 8.508 90.8815 9.548C91.4882 10.588 91.7915 11.7927 91.7915 13.162C91.7915 14.514 91.4882 15.7187 90.8815 16.776C90.2922 17.816 89.4689 18.6393 88.4115 19.246C87.3542 19.8353 86.1582 20.13 84.8235 20.13ZM84.8235 18.492C85.8115 18.492 86.6869 18.2753 87.4495 17.842C88.2122 17.3913 88.8102 16.7673 89.2435 15.97C89.6942 15.1553 89.9195 14.2193 89.9195 13.162C89.9195 12.0873 89.6942 11.1513 89.2435 10.354C88.8102 9.55667 88.2122 8.94133 87.4495 8.508C86.6869 8.05733 85.8202 7.832 84.8495 7.832C83.8789 7.832 83.0122 8.05733 82.2495 8.508C81.4869 8.94133 80.8802 9.55667 80.4295 10.354C79.9789 11.1513 79.7535 12.0873 79.7535 13.162C79.7535 14.2193 79.9789 15.1553 80.4295 15.97C80.8802 16.7673 81.4869 17.3913 82.2495 17.842C83.0122 18.2753 83.8702 18.492 84.8235 18.492ZM102.606 20.13C101.428 20.13 100.362 19.8613 99.4083 19.324C98.455 18.7693 97.6923 17.9807 97.1203 16.958C96.5657 15.918 96.2883 14.6527 96.2883 13.162C96.2883 11.6713 96.5657 10.4147 97.1203 9.392C97.675 8.352 98.429 7.56333 99.3823 7.026C100.336 6.48867 101.41 6.22 102.606 6.22C103.906 6.22 105.068 6.51467 106.09 7.104C107.13 7.676 107.945 8.49067 108.534 9.548C109.124 10.588 109.418 11.7927 109.418 13.162C109.418 14.5487 109.124 15.762 108.534 16.802C107.945 17.842 107.13 18.6567 106.09 19.246C105.068 19.8353 103.906 20.13 102.606 20.13ZM95.5603 25.044V6.35H97.3283V10.458L97.1463 13.188L97.4063 15.944V25.044H95.5603ZM102.476 18.492C103.447 18.492 104.314 18.2753 105.076 17.842C105.839 17.3913 106.446 16.7673 106.896 15.97C107.347 15.1553 107.572 14.2193 107.572 13.162C107.572 12.1047 107.347 11.1773 106.896 10.38C106.446 9.58267 105.839 8.95867 105.076 8.508C104.314 8.05733 103.447 7.832 102.476 7.832C101.506 7.832 100.63 8.05733 99.8503 8.508C99.0877 8.95867 98.481 9.58267 98.0303 10.38C97.597 11.1773 97.3803 12.1047 97.3803 13.162C97.3803 14.2193 97.597 15.1553 98.0303 15.97C98.481 16.7673 99.0877 17.3913 99.8503 17.842C100.63 18.2753 101.506 18.492 102.476 18.492ZM118.745 20.13C117.428 20.13 116.241 19.8353 115.183 19.246C114.143 18.6393 113.32 17.816 112.713 16.776C112.107 15.7187 111.803 14.514 111.803 13.162C111.803 11.7927 112.107 10.588 112.713 9.548C113.32 8.508 114.143 7.69333 115.183 7.104C116.223 6.51467 117.411 6.22 118.745 6.22C120.097 6.22 121.293 6.51467 122.333 7.104C123.391 7.69333 124.214 8.508 124.803 9.548C125.41 10.588 125.713 11.7927 125.713 13.162C125.713 14.514 125.41 15.7187 124.803 16.776C124.214 17.816 123.391 18.6393 122.333 19.246C121.276 19.8353 120.08 20.13 118.745 20.13ZM118.745 18.492C119.733 18.492 120.609 18.2753 121.371 17.842C122.134 17.3913 122.732 16.7673 123.165 15.97C123.616 15.1553 123.841 14.2193 123.841 13.162C123.841 12.0873 123.616 11.1513 123.165 10.354C122.732 9.55667 122.134 8.94133 121.371 8.508C120.609 8.05733 119.742 7.832 118.771 7.832C117.801 7.832 116.934 8.05733 116.171 8.508C115.409 8.94133 114.802 9.55667 114.351 10.354C113.901 11.1513 113.675 12.0873 113.675 13.162C113.675 14.2193 113.901 15.1553 114.351 15.97C114.802 16.7673 115.409 17.3913 116.171 17.842C116.934 18.2753 117.792 18.492 118.745 18.492ZM136.45 6.22C137.56 6.22 138.53 6.43667 139.362 6.87C140.212 7.286 140.87 7.92733 141.338 8.794C141.824 9.66067 142.066 10.7527 142.066 12.07V20H140.22V12.252C140.22 10.8133 139.856 9.73 139.128 9.002C138.418 8.25667 137.412 7.884 136.112 7.884C135.142 7.884 134.292 8.08333 133.564 8.482C132.854 8.86333 132.299 9.42667 131.9 10.172C131.519 10.9 131.328 11.784 131.328 12.824V20H129.482V6.35H131.25V10.094L130.964 9.392C131.398 8.404 132.091 7.63267 133.044 7.078C133.998 6.506 135.133 6.22 136.45 6.22ZM147.053 20V0.707999H148.899V20H147.053ZM154.035 20V6.35H155.881V20H154.035ZM154.971 3.334C154.59 3.334 154.269 3.204 154.009 2.944C153.749 2.684 153.619 2.372 153.619 2.008C153.619 1.644 153.749 1.34067 154.009 1.098C154.269 0.837999 154.59 0.707999 154.971 0.707999C155.352 0.707999 155.673 0.829332 155.933 1.072C156.193 1.31467 156.323 1.618 156.323 1.982C156.323 2.36333 156.193 2.684 155.933 2.944C155.69 3.204 155.37 3.334 154.971 3.334ZM167.985 6.22C169.095 6.22 170.065 6.43667 170.897 6.87C171.747 7.286 172.405 7.92733 172.873 8.794C173.359 9.66067 173.601 10.7527 173.601 12.07V20H171.755V12.252C171.755 10.8133 171.391 9.73 170.663 9.002C169.953 8.25667 168.947 7.884 167.647 7.884C166.677 7.884 165.827 8.08333 165.099 8.482C164.389 8.86333 163.834 9.42667 163.435 10.172C163.054 10.9 162.863 11.784 162.863 12.824V20H161.017V6.35H162.785V10.094L162.499 9.392C162.933 8.404 163.626 7.63267 164.579 7.078C165.533 6.506 166.668 6.22 167.985 6.22ZM184.386 20.13C182.964 20.13 181.716 19.8353 180.642 19.246C179.567 18.6393 178.726 17.816 178.12 16.776C177.513 15.7187 177.21 14.514 177.21 13.162C177.21 11.81 177.496 10.614 178.068 9.574C178.657 8.534 179.454 7.71933 180.46 7.13C181.482 6.52333 182.626 6.22 183.892 6.22C185.174 6.22 186.31 6.51467 187.298 7.104C188.303 7.676 189.092 8.49067 189.664 9.548C190.236 10.588 190.522 11.7927 190.522 13.162C190.522 13.2487 190.513 13.344 190.496 13.448C190.496 13.5347 190.496 13.63 190.496 13.734H178.614V12.356H189.508L188.78 12.902C188.78 11.914 188.563 11.0387 188.13 10.276C187.714 9.496 187.142 8.88933 186.414 8.456C185.686 8.02267 184.845 7.806 183.892 7.806C182.956 7.806 182.115 8.02267 181.37 8.456C180.624 8.88933 180.044 9.496 179.628 10.276C179.212 11.056 179.004 11.9487 179.004 12.954V13.24C179.004 14.28 179.229 15.1987 179.68 15.996C180.148 16.776 180.789 17.3913 181.604 17.842C182.436 18.2753 183.38 18.492 184.438 18.492C185.27 18.492 186.041 18.3447 186.752 18.05C187.48 17.7553 188.104 17.3047 188.624 16.698L189.664 17.894C189.057 18.622 188.294 19.1767 187.376 19.558C186.474 19.9393 185.478 20.13 184.386 20.13Z" fill="white"/>
</svg>
