<svg width="39" height="39" viewBox="0 0 39 39" fill="none" xmlns="http://www.w3.org/2000/svg">
<path d="M35.5799 38.7492L22.2449 25.4118C16.3128 29.6293 8.13863 28.5977 3.44032 23.0387C-1.258 17.4797 -0.913016 9.24789 4.23395 4.10152C9.37955 -1.04711 17.6122 -1.39358 23.1722 3.30449C28.7322 8.00256 29.7644 16.1776 25.5466 22.1102L38.8816 35.4475L35.5823 38.7469L35.5799 38.7492ZM14.1319 4.66615C9.70725 4.66516 5.88989 7.77109 4.99105 12.1035C4.09221 16.436 6.35894 20.8042 10.4189 22.5634C14.4788 24.3227 19.216 22.9895 21.7625 19.371C24.309 15.7525 23.9648 10.8433 20.9383 7.61552L22.3499 9.01552L20.7586 7.42885L20.7306 7.40085C18.9848 5.64426 16.6085 4.65948 14.1319 4.66615Z" fill="white"/>
</svg>
