<svg width="39" height="34" viewBox="0 0 39 34" fill="none" xmlns="http://www.w3.org/2000/svg">
<path d="M0.672521 16.0585L9.49005 19.3464L12.9274 30.4056C13.0768 31.1529 13.9735 31.3023 14.5713 30.854L19.5031 26.8189C19.9515 26.3705 20.6987 26.3705 21.2965 26.8189L30.114 33.2452C30.7118 33.6935 31.6085 33.3946 31.758 32.6474L38.3337 1.26307C38.4832 0.515823 37.7359 -0.231415 36.9887 0.0674831L0.672521 14.1157C-0.224174 14.4146 -0.224174 15.7596 0.672521 16.0585ZM12.479 17.7025L29.8151 7.09159C30.114 6.94214 30.4129 7.39049 30.114 7.53994L15.9163 20.8409C15.468 21.2893 15.0196 21.887 15.0196 22.6343L14.5713 26.2211C14.5713 26.6694 13.8241 26.8189 13.6746 26.2211L11.8812 19.6453C11.4329 18.8981 11.7318 18.0014 12.479 17.7025Z" fill="white"/>
</svg>
